<?xml version="1.0" standalone="no"?>
<!DOCTYPE svg PUBLIC "-//W3C//DTD SVG 20010904//EN"
 "http://www.w3.org/TR/2001/REC-SVG-20010904/DTD/svg10.dtd">
<svg version="1.0" xmlns="http://www.w3.org/2000/svg"
 width="1536.000000pt" height="1024.000000pt" viewBox="0 0 1536.000000 1024.000000"
 preserveAspectRatio="xMidYMid meet">

<g transform="translate(0.000000,1024.000000) scale(0.100000,-0.100000)"
fill="#000000" stroke="none">
<path d="M4100 5365 l0 -1685 515 0 515 0 0 723 -1 722 681 0 680 0 0 -722 0
-723 369 0 368 0 424 320 c1222 922 1250 943 1263 929 7 -8 89 -117 182 -244
92 -126 247 -336 344 -466 96 -130 225 -304 285 -387 l110 -151 682 -1 683 0
-183 223 c-100 123 -335 410 -522 638 -361 441 -407 497 -674 822 -94 114
-171 211 -171 216 0 4 149 142 332 307 183 164 422 382 532 483 111 102 321
294 469 428 147 135 267 246 267 249 0 2 -303 4 -674 4 l-674 0 -123 -117
c-309 -295 -645 -618 -769 -738 -243 -235 -617 -591 -1297 -1234 l-173 -162 0
1125 0 1126 -525 0 -525 0 0 -590 0 -590 -680 0 -680 0 0 590 0 590 -515 0
-515 0 0 -1685z"/>
<path d="M7760 6133 l0 -918 320 320 320 320 0 597 0 598 -320 0 -320 0 0
-917z"/>
</g>
</svg>
